# xmcd CD database file
#
# Track frame offsets:
#	150
#	20355
#	40297
#	65167
#	89640
#	115752
#	139047
#	161615
#	183232
#	204487
#
# Disc length: 3093 seconds
#
# Revision: 8
# Processed by: cddbd v1.5.2PL0 Copyright (c) Steve Scherf et al.
# Submitted via: CDex 1.70beta2
#
DISCID=890c130a
DTITLE=浜田省吾 - Sand Castle
DYEAR=1983
DGENRE=Rock
TTITLE0=君に会うまでは
TTITLE1=君の微笑
TTITLE2=散歩道
TTITLE3=いつわりの日々
TTITLE4=愛という名のもとに
TTITLE5=朝のシルエット
TTITLE6=丘の上の愛
TTITLE7=片想い
TTITLE8=陽のあたる場所
TTITLE9=愛しい人へ
EXTD=YEAR: 1983
EXTT0=
EXTT1=
EXTT2=
EXTT3=
EXTT4=
EXTT5=
EXTT6=
EXTT7=
EXTT8=
EXTT9=
PLAYORDER=
